<?xml version="1.0" standalone="no"?>
<!DOCTYPE svg PUBLIC "-//W3C//DTD SVG 20010904//EN"
 "http://www.w3.org/TR/2001/REC-SVG-20010904/DTD/svg10.dtd">
<svg version="1.0" xmlns="http://www.w3.org/2000/svg"
 width="1972.000000pt" height="1972.000000pt" viewBox="0 0 1972.000000 1972.000000"
 preserveAspectRatio="xMidYMid meet">
<metadata>
Created by potrace 1.14, written by Peter Selinger 2001-2017
</metadata>
<g transform="translate(0.000000,1972.000000) scale(0.100000,-0.100000)"
fill="#000000" stroke="none">
<path d="M14018 15205 c-2 -2 -28 -6 -58 -9 -59 -4 -84 -9 -169 -33 l-53 -15
28 -18 c15 -11 64 -29 108 -40 85 -23 167 -63 183 -89 9 -14 -15 -16 -231 -16
-133 0 -261 -3 -286 -7 -25 -4 -65 -10 -90 -13 -190 -30 -391 -109 -565 -224
-70 -46 -264 -225 -255 -234 5 -5 75 11 238 52 64 16 71 16 60 2 -7 -9 -54
-63 -104 -121 -111 -129 -159 -193 -213 -290 -191 -336 -241 -701 -155 -1118
18 -86 21 -93 30 -66 37 103 119 276 182 384 43 73 182 280 206 306 6 7 42 50
81 96 143 172 433 345 658 394 67 15 245 21 292 10 11 -2 25 -5 30 -5 7 -1 10
-219 11 -632 1 -578 5 -714 19 -791 3 -16 7 -38 9 -50 14 -77 86 -223 86 -175
0 29 90 287 127 366 48 101 118 204 184 269 92 90 135 108 185 79 42 -24 113
-120 179 -242 71 -132 132 -198 230 -246 51 -25 75 -31 126 -30 35 0 76 3 92
6 15 3 39 7 55 10 104 20 157 23 214 13 80 -15 123 -42 230 -146 87 -84 97
-97 81 -106 -10 -6 -20 -11 -23 -12 -3 0 -18 -6 -35 -13 -16 -7 -77 -23 -135
-36 -177 -40 -305 -84 -239 -82 18 0 297 -9 468 -16 26 -1 -40 -44 -93 -61
-28 -9 -99 -23 -158 -32 -59 -8 -124 -21 -145 -29 l-38 -14 40 -2 c22 -1 51
-3 65 -4 14 -1 70 -5 125 -9 55 -4 116 -9 135 -11 19 -2 68 -5 108 -6 39 -1
72 -5 72 -9 0 -11 -100 -58 -139 -65 -19 -3 -37 -7 -40 -9 -3 -2 -28 -7 -56
-10 -27 -4 -70 -12 -95 -17 -25 -6 -56 -13 -70 -15 -31 -6 -46 -19 -22 -20 42
-2 361 -17 402 -19 25 -2 55 -3 68 -4 23 -1 23 -2 -12 -42 -48 -57 -69 -104
-61 -139 14 -64 223 -128 379 -117 124 10 208 41 312 118 128 94 175 218 136
355 -18 62 -80 149 -181 254 -50 52 -91 99 -91 104 0 16 55 56 90 66 19 5 75
12 124 15 194 12 243 80 169 235 -20 44 -78 107 -283 312 -341 340 -434 456
-550 688 -96 189 -142 249 -250 319 -54 35 -166 93 -240 124 -408 173 -537
288 -566 505 -5 42 -16 63 -60 116 -29 35 -70 77 -91 93 -21 15 -46 35 -55 43
-27 24 -177 98 -243 119 -108 35 -218 53 -342 56 -66 2 -123 2 -125 0z m1236
-1414 c74 -30 161 -55 226 -66 65 -10 159 -64 192 -108 42 -58 49 -81 52 -166
l3 -74 67 -65 c68 -67 102 -120 100 -157 0 -11 -2 -31 -3 -45 -3 -51 -14 -53
-77 -19 -32 18 -151 83 -264 144 -113 62 -254 138 -314 170 -126 65 -152 84
-178 126 -22 37 -39 180 -26 226 18 68 103 81 222 34z"/>
<path d="M12134 13823 c-128 -171 -210 -326 -263 -498 -35 -115 -37 -126 -56
-255 -12 -87 -14 -391 -2 -445 2 -11 8 -42 12 -70 4 -27 17 -95 30 -150 93
-399 269 -766 592 -1235 22 -31 197 -263 222 -293 181 -218 372 -422 366 -392
-3 11 -20 83 -39 160 -92 371 -138 621 -151 825 -6 83 -6 342 -1 347 10 10 47
-80 91 -219 45 -139 60 -189 125 -406 17 -56 67 -187 111 -289 161 -374 254
-647 289 -843 6 -36 13 -76 16 -90 18 -102 23 -314 11 -450 l-6 -75 59 62
c101 106 171 219 218 353 43 124 59 210 77 420 3 36 7 74 10 85 2 11 4 25 5
30 1 15 36 -55 72 -143 31 -76 80 -242 73 -242 -3 0 0 -11 5 -24 10 -27 23
-177 24 -271 1 -230 -59 -510 -160 -747 l-34 -81 37 29 c71 52 82 61 139 110
306 262 530 611 603 939 6 28 14 61 17 75 13 56 12 317 -2 395 -25 142 -72
251 -323 755 -136 272 -260 524 -276 560 -15 36 -40 92 -56 125 -123 270 -166
443 -223 890 -19 147 -28 582 -14 723 2 28 2 52 -2 52 -11 0 -110 -159 -153
-247 -72 -148 -131 -349 -162 -558 -11 -70 -13 -427 -3 -514 5 -46 7 -86 4
-89 -10 -9 -56 28 -85 69 -26 35 -66 169 -88 289 -2 14 -8 41 -13 60 -5 19
-11 49 -14 65 -2 17 -9 62 -15 100 -21 131 -19 276 4 420 13 74 76 269 124
383 33 77 44 112 35 112 -20 0 -122 -57 -168 -94 -184 -145 -388 -463 -552
-861 -9 -22 -25 -59 -35 -82 -10 -23 -19 -45 -19 -49 0 -14 -64 -164 -70 -164
-10 0 -126 181 -164 257 -73 147 -143 356 -166 498 -5 33 -12 70 -14 82 -26
130 -23 445 5 595 6 31 10 61 7 68 -2 6 -26 -20 -54 -57z"/>
<path d="M14277 12737 c-20 -62 -41 -132 -47 -157 -6 -25 -12 -52 -14 -60 -4
-15 -17 -89 -22 -125 -2 -11 -5 -81 -8 -155 -9 -303 50 -516 237 -850 26 -47
53 -94 60 -104 7 -11 31 -51 55 -88 23 -38 42 -70 42 -72 0 -2 25 -42 56 -88
134 -202 230 -455 251 -662 11 -112 5 -320 -11 -367 -3 -8 -8 -31 -11 -53 -3
-21 -7 -41 -10 -45 -2 -4 -6 -18 -8 -32 -16 -84 -94 -269 -191 -449 -23 -43
-43 -150 -28 -150 17 1 337 306 448 427 52 57 94 97 94 89 0 -7 -5 -38 -10
-67 -6 -30 -13 -70 -16 -89 -4 -19 -7 -39 -9 -45 -3 -14 -17 -87 -20 -105 -30
-171 -113 -457 -157 -545 -51 -100 -258 -384 -258 -353 0 18 49 211 89 351 17
59 31 110 31 113 0 3 -43 -34 -96 -82 -101 -93 -214 -238 -279 -359 -21 -38
-75 -155 -121 -260 l-84 -190 4 105 c16 426 19 486 30 540 l5 25 -20 -25 c-41
-50 -108 -126 -151 -170 -23 -25 -86 -92 -138 -149 -258 -283 -533 -536 -643
-592 l-38 -20 27 52 c81 161 224 613 299 947 17 77 38 171 41 192 2 14 7 36
10 49 4 18 -5 11 -32 -25 -78 -103 -312 -295 -397 -327 -18 -7 -18 -9 3 83 5
19 11 55 14 80 3 25 8 56 11 70 3 13 7 57 10 97 4 40 8 83 11 95 10 45 12 404
3 463 -5 33 -11 76 -13 95 -5 35 -44 229 -67 330 l-12 55 -17 -67 c-34 -131
-160 -412 -184 -410 -5 1 -20 29 -33 64 -47 121 -66 164 -114 258 -66 128
-118 222 -135 241 -8 8 -14 18 -14 22 0 9 -112 176 -219 327 -100 140 -231
335 -231 344 0 2 -18 32 -40 65 -22 33 -40 63 -40 66 0 6 -119 185 -130 195
-13 12 -68 89 -97 135 -107 169 -194 379 -243 583 l-12 53 -52 -93 c-65 -118
-103 -173 -157 -227 -46 -46 -166 -142 -258 -206 -54 -37 -301 -170 -301 -161
0 3 -19 -4 -42 -14 -49 -21 -193 -59 -348 -90 -100 -21 -120 -24 -191 -34 -17
-3 -42 -7 -57 -10 -15 -3 -47 -8 -72 -11 -78 -11 -115 -17 -118 -20 -2 -2 23
-6 55 -10 32 -3 72 -8 88 -10 17 -3 59 -7 95 -10 36 -3 85 -7 110 -10 186 -19
415 -24 533 -11 120 13 306 68 446 132 69 32 91 35 91 13 0 -27 307 -499 375
-575 6 -6 17 -22 25 -34 19 -28 198 -247 225 -276 218 -227 453 -560 584 -829
149 -304 169 -355 187 -490 11 -86 13 -98 19 -170 4 -38 8 -83 10 -100 7 -62
18 -222 19 -265 0 -108 -27 -252 -116 -610 -101 -410 -240 -593 -668 -886
-281 -191 -463 -337 -600 -480 -139 -145 -164 -179 -156 -216 6 -30 5 -31 -13
-14 -18 16 -20 15 -52 -15 -48 -44 -114 -72 -155 -66 l-33 6 15 -42 c9 -23 24
-59 35 -80 10 -22 19 -41 19 -43 0 -9 -113 68 -148 101 -96 88 -96 86 28 -160
64 -129 116 -235 114 -235 -2 0 -34 15 -71 34 -122 61 -160 76 -148 56 3 -5
20 -56 36 -112 62 -210 125 -313 291 -473 120 -115 113 -111 243 -151 66 -20
126 -41 133 -47 6 -5 12 -23 12 -39 0 -24 -7 -32 -37 -46 -33 -15 -77 -17
-331 -17 -160 0 -292 -2 -292 -5 0 -3 37 -15 83 -28 45 -12 125 -38 177 -58
52 -19 177 -63 277 -97 100 -34 180 -64 178 -67 -2 -4 -26 -7 -52 -9 -26 -1
-68 -4 -93 -7 -25 -2 -213 -6 -418 -9 -349 -5 -376 -4 -415 13 -23 11 -49 28
-58 38 -22 25 -112 267 -139 369 -23 90 -33 164 -34 245 0 113 10 154 94 395
49 142 90 301 90 351 0 26 14 108 31 183 37 159 34 145 44 196 13 69 15 79 21
115 3 19 11 67 19 105 7 39 16 86 19 105 3 19 8 46 11 60 3 14 10 50 15 80 10
50 32 140 74 293 41 150 124 332 241 527 99 167 159 317 167 418 4 50 15 38
37 -35 37 -126 43 -158 60 -278 30 -216 18 -383 -46 -653 -6 -23 -5 -24 23 -9
43 22 135 124 176 192 35 61 93 201 102 246 2 13 7 31 10 39 3 8 8 26 10 40 3
14 8 36 11 50 10 46 17 85 20 115 2 17 6 41 9 55 3 14 8 48 11 75 10 91 16
140 20 163 12 72 20 313 19 559 -1 155 2 281 5 278 15 -8 141 -276 164 -346
36 -108 50 -215 44 -316 l-5 -88 18 48 c49 130 100 377 115 557 11 141 5 456
-10 480 -2 3 -7 35 -10 70 -4 36 -8 67 -10 71 -2 3 -7 21 -10 40 -3 19 -13 61
-22 94 -8 33 -16 65 -17 70 -1 6 -19 64 -41 129 l-40 119 -130 63 c-71 34
-197 91 -280 127 -193 83 -225 99 -225 110 0 4 8 6 18 3 66 -20 307 -25 340
-7 21 11 21 13 7 40 -42 82 -442 318 -759 448 -194 79 -490 180 -579 197 -180
34 -249 46 -282 51 -23 3 -50 7 -60 9 -11 2 -45 7 -76 10 -31 4 -65 8 -75 10
-11 2 -50 7 -89 10 -38 4 -81 9 -95 11 -25 4 -144 14 -230 20 -25 2 -81 7
-125 10 -92 8 -133 11 -340 21 -268 12 -379 9 -525 -16 -30 -5 -75 -12 -100
-15 -75 -11 -250 -44 -340 -66 -47 -12 -92 -22 -100 -24 -81 -17 -381 -104
-392 -114 -4 -3 48 -6 115 -7 154 -1 404 -15 522 -29 22 -2 63 -7 90 -10 28
-3 64 -7 80 -10 17 -2 48 -7 70 -10 22 -4 51 -8 65 -10 14 -3 43 -7 65 -10 22
-4 59 -11 83 -16 23 -5 57 -12 75 -15 17 -3 66 -13 107 -22 l74 -18 -159 -47
c-88 -27 -216 -66 -285 -87 -69 -21 -246 -75 -395 -120 -275 -83 -429 -139
-477 -172 -14 -10 -29 -18 -33 -18 -4 0 -48 -28 -98 -62 -111 -75 -273 -235
-344 -338 -96 -141 -200 -359 -259 -543 -23 -74 -109 -396 -120 -457 -12 -58
-79 -242 -119 -325 -37 -76 -140 -241 -189 -303 -8 -9 -45 -55 -82 -102 -80
-99 -117 -140 -239 -262 -89 -89 -265 -244 -265 -234 0 3 27 59 60 125 33 66
60 123 60 126 0 3 9 24 20 48 84 184 187 536 224 772 12 76 26 186 32 250 3
39 8 80 9 93 4 38 -5 18 -40 -85 -91 -270 -233 -526 -416 -752 -124 -153 -177
-228 -216 -306 -49 -101 -103 -274 -118 -385 -3 -25 -9 -61 -12 -80 -10 -64
-12 -104 -13 -279 -2 -169 -2 -173 -19 -145 -37 61 -150 343 -166 414 -2 8 -8
29 -14 47 -5 17 -8 33 -8 35 1 2 -6 -4 -15 -14 -17 -18 -74 -108 -223 -348
-141 -227 -269 -384 -469 -577 -123 -119 -134 -133 -159 -198 -33 -85 -33 -85
-5 -79 35 7 141 20 158 18 8 0 28 -2 45 -2 26 -2 21 -6 -40 -36 -39 -19 -122
-71 -185 -115 -63 -44 -164 -110 -225 -147 -60 -37 -141 -91 -180 -120 -74
-54 -162 -140 -154 -149 3 -2 29 5 58 16 67 25 223 70 228 66 3 -3 -206 -296
-241 -338 -25 -30 -64 -104 -66 -124 -4 -40 -1 -42 100 -49 186 -13 492 -79
679 -147 34 -12 33 -13 -95 -44 -79 -20 -163 -48 -217 -75 -48 -23 -87 -43
-85 -45 2 -2 73 -6 158 -9 199 -8 314 -25 448 -68 l63 -20 34 -71 c19 -40 35
-73 35 -75 0 -1 -12 0 -27 2 -26 4 -93 11 -213 21 -230 20 -893 26 -1095 11
-172 -14 -190 -9 -198 51 -5 46 0 680 7 778 3 39 8 115 11 170 7 121 15 131
114 156 107 27 188 87 258 189 16 25 80 146 141 270 61 124 142 275 180 335
59 94 189 285 229 335 71 91 352 440 368 456 5 6 31 33 56 60 25 27 77 78 116
112 65 58 82 81 189 270 130 230 234 403 386 645 114 181 377 576 398 597 3 3
41 52 84 110 247 326 561 649 871 896 190 151 467 341 587 403 41 21 28 23
-43 7 -213 -50 -524 -149 -777 -248 -204 -80 -363 -185 -704 -464 -372 -304
-689 -486 -1087 -625 -78 -27 -323 -96 -375 -105 -12 -2 -70 -12 -131 -23 -60
-10 -146 -22 -190 -26 -44 -4 -89 -9 -100 -11 -26 -6 -373 -5 -405 0 -14 3
-56 7 -95 11 -68 6 -98 10 -160 20 -16 3 -46 7 -65 10 -19 3 -44 7 -55 9 -11
2 -49 10 -85 16 -205 40 -310 184 -315 432 -1 74 4 120 21 189 47 184 136 276
359 368 608 250 1003 724 1131 1353 20 98 15 253 -11 338 -71 235 -268 423
-519 494 -32 10 -60 15 -62 13 -2 -2 0 -17 5 -33 12 -44 13 -172 1 -234 -5
-30 -29 -93 -52 -140 -52 -107 -165 -223 -316 -325 -57 -39 -143 -99 -190
-134 -129 -96 -406 -380 -535 -551 -56 -74 -72 -97 -96 -148 -56 -112 -66
-253 -26 -375 12 -36 24 -70 28 -73 3 -4 53 35 110 87 57 52 136 123 176 159
40 36 94 84 120 108 61 58 141 125 141 120 0 -4 -71 -136 -104 -193 -6 -11
-32 -51 -57 -90 -174 -266 -306 -563 -363 -815 -72 -322 -10 -586 184 -781 71
-71 101 -94 180 -132 122 -60 228 -88 395 -104 152 -15 689 -6 755 12 8 2 47
6 85 10 76 6 126 12 165 20 14 3 41 7 60 9 107 14 315 60 570 126 222 57 322
81 332 78 4 -2 -166 -264 -380 -583 -480 -718 -775 -1158 -782 -1165 -3 -3
-29 -41 -59 -85 -187 -276 -240 -344 -366 -470 -107 -108 -221 -193 -332 -249
-53 -26 -189 -75 -233 -83 -13 -2 -26 -5 -27 -7 -3 -2 -38 -170 -48 -226 -2
-14 -15 -79 -29 -145 -13 -66 -27 -136 -30 -155 -3 -19 -14 -80 -25 -135 -22
-117 -32 -169 -37 -210 -5 -40 -15 -105 -21 -130 -12 -53 -14 -328 -4 -410 20
-146 88 -335 161 -439 l28 -41 1138 1 1139 1 -1 29 c-3 99 -35 276 -71 389
-75 240 -212 385 -448 476 -110 43 -228 73 -412 104 -16 2 -53 7 -83 11 -30 3
-56 7 -57 8 -3 3 119 168 170 231 61 75 122 129 217 190 146 94 278 155 490
225 504 167 941 401 1322 707 72 58 134 101 138 96 7 -6 340 -464 466 -638
156 -217 332 -478 346 -515 15 -39 19 -61 18 -125 0 -69 -2 -85 -36 -215 -28
-107 -30 -207 -6 -278 17 -52 341 -692 350 -693 42 -5 1577 -2 1585 3 16 10
11 161 -9 256 -37 181 -134 326 -274 409 -46 28 -132 50 -224 58 -185 16 -293
92 -422 302 -27 43 -64 100 -82 127 -40 58 -58 97 -72 162 -11 48 -14 195 -6
244 2 14 10 59 16 100 7 41 14 84 17 95 2 11 6 31 9 45 36 178 126 426 228
630 151 302 404 674 480 705 69 29 92 25 326 -55 124 -43 238 -82 253 -89 16
-6 30 -11 32 -11 11 0 389 -139 545 -201 182 -72 218 -94 264 -167 27 -44 52
-119 60 -182 3 -25 9 -70 13 -100 10 -72 10 -451 1 -560 -16 -182 -85 -478
-153 -649 -30 -78 -61 -189 -71 -251 -7 -50 -7 -184 0 -215 26 -116 36 -145
85 -248 18 -37 61 -145 95 -240 l63 -172 954 0 954 1 -3 22 c-4 28 -114 380
-141 453 -87 229 -285 371 -550 395 -31 2 -75 6 -97 9 -189 18 -240 109 -179
321 26 86 77 199 117 258 48 69 384 399 582 571 38 33 79 69 92 80 162 146
242 197 344 220 16 4 101 29 135 40 136 45 479 135 485 128 5 -4 29 -75 55
-158 89 -281 156 -431 228 -506 14 -15 52 -42 84 -60 134 -75 341 -220 497
-348 68 -55 348 -327 396 -386 14 -16 57 -68 96 -115 139 -167 285 -377 421
-605 94 -158 153 -273 153 -296 0 -11 7 -19 18 -20 9 0 382 -1 827 -1 l810 -1
-3 40 c-3 51 -65 239 -104 318 -88 175 -202 288 -360 358 -50 22 -105 40 -110
35 -2 -1 -12 3 -23 9 -11 6 -42 14 -69 17 -27 4 -52 9 -56 11 -3 2 -57 6 -120
10 -128 8 -172 25 -226 88 -16 19 -135 192 -264 386 -216 324 -323 481 -368
538 -9 12 -24 31 -32 43 -8 12 -33 45 -54 73 -252 335 -387 728 -378 1105 2
111 34 217 86 289 19 27 98 108 176 182 238 225 411 457 547 732 87 175 95
193 143 328 61 172 117 394 135 540 4 30 9 63 11 75 6 26 18 252 18 326 -1 75
-14 298 -19 313 -2 7 -6 30 -9 52 -6 58 -42 224 -63 292 -9 32 -17 60 -18 63
-27 118 -149 380 -243 525 -27 41 -141 196 -151 205 -3 3 -33 36 -66 74 -33
39 -80 91 -105 116 -264 273 -435 478 -538 648 -89 146 -180 382 -206 534 -8
43 -16 81 -18 83 -2 3 -21 -46 -41 -108z m-750 -3969 c-3 -8 -6 -5 -6 6 -1 11
2 17 5 13 3 -3 4 -12 1 -19z m-4707 -702 c180 -30 164 -27 373 -71 134 -28
234 -51 477 -110 8 -2 56 -13 105 -25 50 -12 144 -34 210 -50 66 -15 136 -31
155 -34 52 -9 131 -50 163 -84 16 -16 34 -47 42 -68 12 -36 13 -139 2 -151 -3
-2 -68 18 -144 46 -283 103 -736 243 -859 264 -16 3 -69 15 -119 26 -49 11
-101 22 -115 24 -107 20 -150 27 -185 32 -22 4 -51 8 -65 10 -14 3 -50 7 -80
11 -30 3 -66 7 -80 10 -74 12 -252 19 -470 19 -265 0 -370 -7 -574 -36 -38 -5
-71 -8 -73 -5 -5 5 61 36 165 80 152 63 376 119 530 132 42 3 78 8 80 9 2 2
72 1 155 0 100 -3 205 -13 307 -29z m4635 -697 c9 -17 15 -32 13 -34 -2 -1
-25 -13 -53 -25 -27 -13 -77 -35 -110 -50 -299 -137 -576 -260 -583 -260 -5 0
-17 9 -27 20 -17 18 -16 21 6 56 70 114 153 157 378 199 214 40 253 52 315 97
22 15 41 28 43 28 1 0 10 -14 18 -31z m225 -605 c38 -31 398 -307 525 -402
382 -288 588 -493 814 -810 63 -89 251 -393 251 -407 0 -3 21 -38 48 -77 44
-68 67 -97 117 -152 27 -29 133 -112 217 -169 74 -50 75 -46 -17 -63 -138 -26
-278 8 -366 88 -48 43 -89 106 -155 235 -97 187 -118 225 -209 364 -250 384
-550 686 -953 961 -73 50 -151 111 -173 137 -51 58 -103 167 -122 253 -15 68
-14 71 23 42z m-6305 -212 c201 -142 386 -408 444 -637 7 -27 15 -59 18 -70 3
-11 7 -119 9 -240 3 -253 8 -311 35 -418 33 -130 63 -182 169 -288 52 -52 129
-125 170 -162 l75 -68 -150 4 c-192 5 -205 10 -277 113 -81 116 -144 229 -174
314 -30 83 -35 158 -20 295 28 261 -18 504 -141 750 -53 106 -146 254 -211
339 -55 72 -112 153 -112 161 0 10 95 -43 165 -93z"/>
<path d="M16465 11585 c-143 -32 -269 -39 -365 -21 -76 14 -103 13 -135 -4
-38 -21 -48 -59 -42 -167 9 -159 57 -302 108 -329 26 -13 32 -13 71 7 54 27
229 207 317 324 78 104 137 205 119 204 -7 -1 -40 -7 -73 -14z"/>
<path d="M12034 8203 c-4 -16 -15 -45 -26 -65 -10 -21 -16 -38 -13 -38 7 0 41
71 49 103 3 15 4 27 1 27 -2 0 -8 -12 -11 -27z"/>
</g>
</svg>
